<mxfile host="app.diagrams.net" modified="2020-10-18T20:57:06.271Z" agent="5.0 (Windows)" etag="WjzWZLY8jYg01UALpdiO" version="13.8.0" type="github">
  <diagram id="C5RBs43oDa-KdzZeNtuy" name="Page-1">
    <mxGraphModel dx="1038" dy="575" grid="1" gridSize="10" guides="1" tooltips="1" connect="1" arrows="1" fold="1" page="1" pageScale="1" pageWidth="3300" pageHeight="4681" math="0" shadow="0">
      <root>
        <mxCell id="WIyWlLk6GJQsqaUBKTNV-0" />
        <mxCell id="WIyWlLk6GJQsqaUBKTNV-1" parent="WIyWlLk6GJQsqaUBKTNV-0" />
        <mxCell id="WIyWlLk6GJQsqaUBKTNV-3" value="Start" style="rounded=1;whiteSpace=wrap;html=1;fontSize=12;glass=0;strokeWidth=1;shadow=0;" parent="WIyWlLk6GJQsqaUBKTNV-1" vertex="1">
          <mxGeometry x="370" y="30" width="120" height="40" as="geometry" />
        </mxCell>
        <mxCell id="eAlN3SAStFsZumbqBgI1-1" value="Configuration" style="rounded=1;whiteSpace=wrap;html=1;fontSize=12;glass=0;strokeWidth=1;shadow=0;" parent="WIyWlLk6GJQsqaUBKTNV-1" vertex="1">
          <mxGeometry x="370" y="110" width="120" height="40" as="geometry" />
        </mxCell>
        <mxCell id="eAlN3SAStFsZumbqBgI1-2" value="" style="endArrow=classic;html=1;exitX=0.5;exitY=1;exitDx=0;exitDy=0;entryX=0.5;entryY=0;entryDx=0;entryDy=0;" parent="WIyWlLk6GJQsqaUBKTNV-1" source="WIyWlLk6GJQsqaUBKTNV-3" target="eAlN3SAStFsZumbqBgI1-1" edge="1">
          <mxGeometry width="50" height="50" relative="1" as="geometry">
            <mxPoint x="130" y="140" as="sourcePoint" />
            <mxPoint x="180" y="90" as="targetPoint" />
          </mxGeometry>
        </mxCell>
        <mxCell id="eAlN3SAStFsZumbqBgI1-3" value="" style="endArrow=classic;html=1;exitX=0.5;exitY=1;exitDx=0;exitDy=0;" parent="WIyWlLk6GJQsqaUBKTNV-1" source="eAlN3SAStFsZumbqBgI1-1" edge="1">
          <mxGeometry width="50" height="50" relative="1" as="geometry">
            <mxPoint x="340" y="240" as="sourcePoint" />
            <mxPoint x="430" y="210" as="targetPoint" />
          </mxGeometry>
        </mxCell>
        <mxCell id="eAlN3SAStFsZumbqBgI1-4" value="Has 0.5 seconds passed?" style="rhombus;whiteSpace=wrap;html=1;shadow=0;fontFamily=Helvetica;fontSize=12;align=center;strokeWidth=1;spacing=6;spacingTop=-4;" parent="WIyWlLk6GJQsqaUBKTNV-1" vertex="1">
          <mxGeometry x="370" y="210" width="120" height="120" as="geometry" />
        </mxCell>
        <mxCell id="eAlN3SAStFsZumbqBgI1-5" value="I measure, update the display and UART, update the speaker frequency and reset the timer" style="rounded=1;whiteSpace=wrap;html=1;fontSize=12;glass=0;strokeWidth=1;shadow=0;" parent="WIyWlLk6GJQsqaUBKTNV-1" vertex="1">
          <mxGeometry x="537" y="232.5" width="154" height="75" as="geometry" />
        </mxCell>
        <mxCell id="eAlN3SAStFsZumbqBgI1-6" value="&#xa;&lt;br&gt;Yes&lt;br&gt;&lt;br&gt;&#xa;&#xa;" style="endArrow=classic;html=1;exitX=1;exitY=0.5;exitDx=0;exitDy=0;entryX=0;entryY=0.5;entryDx=0;entryDy=0;labelBackgroundColor=none;" parent="WIyWlLk6GJQsqaUBKTNV-1" source="eAlN3SAStFsZumbqBgI1-4" target="eAlN3SAStFsZumbqBgI1-5" edge="1">
          <mxGeometry x="-0.1489" y="10" width="50" height="50" relative="1" as="geometry">
            <mxPoint x="460" y="530" as="sourcePoint" />
            <mxPoint x="510" y="480" as="targetPoint" />
            <mxPoint as="offset" />
          </mxGeometry>
        </mxCell>
        <mxCell id="eAlN3SAStFsZumbqBgI1-7" value="Are we moving in a positive or&lt;br&gt;negative direction" style="rhombus;whiteSpace=wrap;html=1;shadow=0;fontFamily=Helvetica;fontSize=12;align=center;strokeWidth=1;spacing=6;spacingTop=-4;" parent="WIyWlLk6GJQsqaUBKTNV-1" vertex="1">
          <mxGeometry x="1137" y="205" width="140" height="130" as="geometry" />
        </mxCell>
        <mxCell id="eAlN3SAStFsZumbqBgI1-10" value="" style="endArrow=classic;html=1;exitX=1;exitY=0.5;exitDx=0;exitDy=0;entryX=0;entryY=0.5;entryDx=0;entryDy=0;" parent="WIyWlLk6GJQsqaUBKTNV-1" source="eAlN3SAStFsZumbqBgI1-7" target="eAlN3SAStFsZumbqBgI1-12" edge="1">
          <mxGeometry width="50" height="50" relative="1" as="geometry">
            <mxPoint x="1456" y="270" as="sourcePoint" />
            <mxPoint x="1486" y="255" as="targetPoint" />
          </mxGeometry>
        </mxCell>
        <mxCell id="eAlN3SAStFsZumbqBgI1-11" value="Positive" style="edgeLabel;html=1;align=center;verticalAlign=middle;resizable=0;points=[];" parent="eAlN3SAStFsZumbqBgI1-10" vertex="1" connectable="0">
          <mxGeometry x="0.2118" y="1" relative="1" as="geometry">
            <mxPoint x="-21" y="-14" as="offset" />
          </mxGeometry>
        </mxCell>
        <mxCell id="eAlN3SAStFsZumbqBgI1-12" value="Are we going to exceed 180ยบ?" style="rhombus;whiteSpace=wrap;html=1;rounded=0;verticalAlign=middle;" parent="WIyWlLk6GJQsqaUBKTNV-1" vertex="1">
          <mxGeometry x="1538" y="195" width="144" height="143" as="geometry" />
        </mxCell>
        <mxCell id="eAlN3SAStFsZumbqBgI1-15" value="We change the direction" style="rounded=1;whiteSpace=wrap;html=1;fontSize=12;glass=0;strokeWidth=1;shadow=0;" parent="WIyWlLk6GJQsqaUBKTNV-1" vertex="1">
          <mxGeometry x="934" y="409" width="134" height="60" as="geometry" />
        </mxCell>
        <mxCell id="eAlN3SAStFsZumbqBgI1-18" value="We increase degrees" style="rounded=1;whiteSpace=wrap;html=1;fontSize=12;glass=0;strokeWidth=1;shadow=0;" parent="WIyWlLk6GJQsqaUBKTNV-1" vertex="1">
          <mxGeometry x="1543" y="409" width="134" height="60" as="geometry" />
        </mxCell>
        <mxCell id="eAlN3SAStFsZumbqBgI1-24" value="Are we going to go below 0ยบ?" style="rhombus;whiteSpace=wrap;html=1;" parent="WIyWlLk6GJQsqaUBKTNV-1" vertex="1">
          <mxGeometry x="1147" y="384" width="120" height="110" as="geometry" />
        </mxCell>
        <mxCell id="eAlN3SAStFsZumbqBgI1-27" value="We change the direction" style="rounded=1;whiteSpace=wrap;html=1;fontSize=12;glass=0;strokeWidth=1;shadow=0;" parent="WIyWlLk6GJQsqaUBKTNV-1" vertex="1">
          <mxGeometry x="1750" y="239" width="134" height="60" as="geometry" />
        </mxCell>
        <mxCell id="eAlN3SAStFsZumbqBgI1-29" value="We decrease degrees" style="rounded=1;whiteSpace=wrap;html=1;fontSize=12;glass=0;strokeWidth=1;shadow=0;" parent="WIyWlLk6GJQsqaUBKTNV-1" vertex="1">
          <mxGeometry x="1360" y="409" width="134" height="60" as="geometry" />
        </mxCell>
        <mxCell id="eAlN3SAStFsZumbqBgI1-35" value="Has the ISP button been pressed?" style="rhombus;whiteSpace=wrap;html=1;shadow=0;fontFamily=Helvetica;fontSize=12;align=center;strokeWidth=1;spacing=6;spacingTop=-4;" parent="WIyWlLk6GJQsqaUBKTNV-1" vertex="1">
          <mxGeometry x="370" y="1030" width="120" height="110" as="geometry" />
        </mxCell>
        <mxCell id="eAlN3SAStFsZumbqBgI1-38" value="" style="endArrow=classic;html=1;" parent="WIyWlLk6GJQsqaUBKTNV-1" edge="1">
          <mxGeometry width="50" height="50" relative="1" as="geometry">
            <mxPoint x="260" y="170" as="sourcePoint" />
            <mxPoint x="430" y="170" as="targetPoint" />
          </mxGeometry>
        </mxCell>
        <mxCell id="eAlN3SAStFsZumbqBgI1-39" value="Has 0.5 seconds passed?" style="rhombus;whiteSpace=wrap;html=1;shadow=0;fontFamily=Helvetica;fontSize=12;align=center;strokeWidth=1;spacing=6;spacingTop=-4;" parent="WIyWlLk6GJQsqaUBKTNV-1" vertex="1">
          <mxGeometry x="373" y="1250" width="120" height="110" as="geometry" />
        </mxCell>
        <mxCell id="eAlN3SAStFsZumbqBgI1-41" value="" style="endArrow=classic;html=1;exitX=1;exitY=0.5;exitDx=0;exitDy=0;entryX=0;entryY=0.5;entryDx=0;entryDy=0;" parent="WIyWlLk6GJQsqaUBKTNV-1" source="eAlN3SAStFsZumbqBgI1-39" edge="1">
          <mxGeometry width="50" height="50" relative="1" as="geometry">
            <mxPoint x="463" y="1560" as="sourcePoint" />
            <mxPoint x="583" y="1305" as="targetPoint" />
          </mxGeometry>
        </mxCell>
        <mxCell id="eAlN3SAStFsZumbqBgI1-116" value="Yes" style="edgeLabel;html=1;align=center;verticalAlign=middle;resizable=0;points=[];" parent="eAlN3SAStFsZumbqBgI1-41" vertex="1" connectable="0">
          <mxGeometry x="-0.3556" y="-4" relative="1" as="geometry">
            <mxPoint y="-14" as="offset" />
          </mxGeometry>
        </mxCell>
        <mxCell id="eAlN3SAStFsZumbqBgI1-42" value="" style="endArrow=classic;html=1;exitX=0.5;exitY=1;exitDx=0;exitDy=0;entryX=0.5;entryY=0;entryDx=0;entryDy=0;" parent="WIyWlLk6GJQsqaUBKTNV-1" source="eAlN3SAStFsZumbqBgI1-35" target="eAlN3SAStFsZumbqBgI1-39" edge="1">
          <mxGeometry width="50" height="50" relative="1" as="geometry">
            <mxPoint x="240" y="985" as="sourcePoint" />
            <mxPoint x="290" y="935" as="targetPoint" />
          </mxGeometry>
        </mxCell>
        <mxCell id="eAlN3SAStFsZumbqBgI1-184" value="Yes" style="edgeLabel;html=1;align=center;verticalAlign=middle;resizable=0;points=[];" parent="eAlN3SAStFsZumbqBgI1-42" vertex="1" connectable="0">
          <mxGeometry x="-0.399" y="2" relative="1" as="geometry">
            <mxPoint x="17.1" y="-2.93" as="offset" />
          </mxGeometry>
        </mxCell>
        <mxCell id="eAlN3SAStFsZumbqBgI1-43" value="" style="endArrow=classic;html=1;exitX=0.5;exitY=1;exitDx=0;exitDy=0;entryX=0.5;entryY=0;entryDx=0;entryDy=0;" parent="WIyWlLk6GJQsqaUBKTNV-1" source="eAlN3SAStFsZumbqBgI1-39" edge="1">
          <mxGeometry width="50" height="50" relative="1" as="geometry">
            <mxPoint x="363" y="1520" as="sourcePoint" />
            <mxPoint x="433" y="1490" as="targetPoint" />
          </mxGeometry>
        </mxCell>
        <mxCell id="eAlN3SAStFsZumbqBgI1-117" value="No" style="edgeLabel;html=1;align=center;verticalAlign=middle;resizable=0;points=[];" parent="eAlN3SAStFsZumbqBgI1-43" vertex="1" connectable="0">
          <mxGeometry x="-0.3692" y="3" relative="1" as="geometry">
            <mxPoint x="14" y="-11" as="offset" />
          </mxGeometry>
        </mxCell>
        <mxCell id="eAlN3SAStFsZumbqBgI1-44" value="Has the ISP button been pressed?" style="rhombus;whiteSpace=wrap;html=1;shadow=0;fontFamily=Helvetica;fontSize=12;align=center;strokeWidth=1;spacing=6;spacingTop=-4;" parent="WIyWlLk6GJQsqaUBKTNV-1" vertex="1">
          <mxGeometry x="373" y="1811" width="120" height="110" as="geometry" />
        </mxCell>
        <mxCell id="eAlN3SAStFsZumbqBgI1-47" value="" style="endArrow=classic;html=1;" parent="WIyWlLk6GJQsqaUBKTNV-1" edge="1">
          <mxGeometry width="50" height="50" relative="1" as="geometry">
            <mxPoint x="330" y="1220" as="sourcePoint" />
            <mxPoint x="433" y="1220" as="targetPoint" />
          </mxGeometry>
        </mxCell>
        <mxCell id="eAlN3SAStFsZumbqBgI1-49" value="Has character 13 come through the UART?" style="rhombus;whiteSpace=wrap;html=1;shadow=0;fontFamily=Helvetica;fontSize=12;align=center;strokeWidth=1;spacing=6;spacingTop=-4;" parent="WIyWlLk6GJQsqaUBKTNV-1" vertex="1">
          <mxGeometry x="365" y="648.75" width="130" height="120" as="geometry" />
        </mxCell>
        <mxCell id="eAlN3SAStFsZumbqBgI1-51" value="" style="endArrow=classic;html=1;exitX=0.5;exitY=1;exitDx=0;exitDy=0;" parent="WIyWlLk6GJQsqaUBKTNV-1" source="eAlN3SAStFsZumbqBgI1-49" edge="1">
          <mxGeometry width="50" height="50" relative="1" as="geometry">
            <mxPoint x="430" y="794.9999999999998" as="sourcePoint" />
            <mxPoint x="430" y="950" as="targetPoint" />
          </mxGeometry>
        </mxCell>
        <mxCell id="eAlN3SAStFsZumbqBgI1-53" value="No" style="edgeLabel;html=1;align=center;verticalAlign=middle;resizable=0;points=[];" parent="eAlN3SAStFsZumbqBgI1-51" vertex="1" connectable="0">
          <mxGeometry x="-0.4476" y="-2" relative="1" as="geometry">
            <mxPoint x="-18" y="11" as="offset" />
          </mxGeometry>
        </mxCell>
        <mxCell id="eAlN3SAStFsZumbqBgI1-59" value="I measure, update the display and UART, update the speaker frequency and reset the timer" style="rounded=1;whiteSpace=wrap;html=1;fontSize=12;glass=0;strokeWidth=1;shadow=0;" parent="WIyWlLk6GJQsqaUBKTNV-1" vertex="1">
          <mxGeometry x="560" y="1267.5" width="154" height="75" as="geometry" />
        </mxCell>
        <mxCell id="eAlN3SAStFsZumbqBgI1-79" value="Has character 13 come through the UART?" style="rhombus;whiteSpace=wrap;html=1;shadow=0;fontFamily=Helvetica;fontSize=12;align=center;strokeWidth=1;spacing=6;spacingTop=-4;" parent="WIyWlLk6GJQsqaUBKTNV-1" vertex="1">
          <mxGeometry x="366.5" y="1470.5" width="127" height="123" as="geometry" />
        </mxCell>
        <mxCell id="eAlN3SAStFsZumbqBgI1-80" value="We respond with the message of the options" style="rounded=1;whiteSpace=wrap;html=1;fontSize=12;glass=0;strokeWidth=1;shadow=0;" parent="WIyWlLk6GJQsqaUBKTNV-1" vertex="1">
          <mxGeometry x="573" y="1502" width="134" height="60" as="geometry" />
        </mxCell>
        <mxCell id="eAlN3SAStFsZumbqBgI1-81" value="Does it send us something?" style="rhombus;whiteSpace=wrap;html=1;" parent="WIyWlLk6GJQsqaUBKTNV-1" vertex="1">
          <mxGeometry x="749" y="1487" width="114" height="90" as="geometry" />
        </mxCell>
        <mxCell id="eAlN3SAStFsZumbqBgI1-85" value="Yes" style="edgeLabel;html=1;align=center;verticalAlign=middle;resizable=0;points=[];" parent="WIyWlLk6GJQsqaUBKTNV-1" vertex="1" connectable="0">
          <mxGeometry x="887" y="1522" as="geometry">
            <mxPoint as="offset" />
          </mxGeometry>
        </mxCell>
        <mxCell id="eAlN3SAStFsZumbqBgI1-86" value="We analyze the message" style="rounded=1;whiteSpace=wrap;html=1;fontSize=12;glass=0;strokeWidth=1;shadow=0;" parent="WIyWlLk6GJQsqaUBKTNV-1" vertex="1">
          <mxGeometry x="953" y="1502" width="134" height="60" as="geometry" />
        </mxCell>
        <mxCell id="eAlN3SAStFsZumbqBgI1-87" value="Is the message correct?" style="rhombus;whiteSpace=wrap;html=1;" parent="WIyWlLk6GJQsqaUBKTNV-1" vertex="1">
          <mxGeometry x="970" y="1602" width="100" height="100" as="geometry" />
        </mxCell>
        <mxCell id="eAlN3SAStFsZumbqBgI1-88" value="" style="endArrow=classic;html=1;exitX=0.5;exitY=1;exitDx=0;exitDy=0;entryX=0.5;entryY=0;entryDx=0;entryDy=0;" parent="WIyWlLk6GJQsqaUBKTNV-1" source="eAlN3SAStFsZumbqBgI1-86" target="eAlN3SAStFsZumbqBgI1-87" edge="1">
          <mxGeometry width="50" height="50" relative="1" as="geometry">
            <mxPoint x="1123" y="1652" as="sourcePoint" />
            <mxPoint x="1173" y="1602" as="targetPoint" />
          </mxGeometry>
        </mxCell>
        <mxCell id="eAlN3SAStFsZumbqBgI1-89" value="We configure the new parameters" style="rounded=1;whiteSpace=wrap;html=1;" parent="WIyWlLk6GJQsqaUBKTNV-1" vertex="1">
          <mxGeometry x="960" y="1751" width="120" height="60" as="geometry" />
        </mxCell>
        <mxCell id="eAlN3SAStFsZumbqBgI1-90" value="No" style="endArrow=classic;html=1;exitX=0.5;exitY=1;exitDx=0;exitDy=0;entryX=0.5;entryY=0;entryDx=0;entryDy=0;" parent="WIyWlLk6GJQsqaUBKTNV-1" source="eAlN3SAStFsZumbqBgI1-87" target="eAlN3SAStFsZumbqBgI1-89" edge="1">
          <mxGeometry x="-0.0612" y="-10" width="50" height="50" relative="1" as="geometry">
            <mxPoint x="763" y="1752" as="sourcePoint" />
            <mxPoint x="813" y="1702" as="targetPoint" />
            <mxPoint y="-1" as="offset" />
          </mxGeometry>
        </mxCell>
        <mxCell id="eAlN3SAStFsZumbqBgI1-91" value="" style="endArrow=classic;html=1;exitX=1;exitY=0.5;exitDx=0;exitDy=0;" parent="WIyWlLk6GJQsqaUBKTNV-1" source="eAlN3SAStFsZumbqBgI1-87" edge="1">
          <mxGeometry width="50" height="50" relative="1" as="geometry">
            <mxPoint x="823" y="1722" as="sourcePoint" />
            <mxPoint x="1163" y="1652" as="targetPoint" />
          </mxGeometry>
        </mxCell>
        <mxCell id="eAlN3SAStFsZumbqBgI1-149" value="Yes" style="edgeLabel;html=1;align=center;verticalAlign=middle;resizable=0;points=[];" parent="eAlN3SAStFsZumbqBgI1-91" vertex="1" connectable="0">
          <mxGeometry x="-0.3523" relative="1" as="geometry">
            <mxPoint x="9.41" y="-17" as="offset" />
          </mxGeometry>
        </mxCell>
        <mxCell id="eAlN3SAStFsZumbqBgI1-92" value="Send &quot;Error in message / Wrong format&quot;" style="rounded=1;whiteSpace=wrap;html=1;" parent="WIyWlLk6GJQsqaUBKTNV-1" vertex="1">
          <mxGeometry x="1163" y="1622" width="120" height="60" as="geometry" />
        </mxCell>
        <mxCell id="eAlN3SAStFsZumbqBgI1-93" value="" style="endArrow=classic;html=1;exitX=1;exitY=0.5;exitDx=0;exitDy=0;entryX=0;entryY=0.5;entryDx=0;entryDy=0;" parent="WIyWlLk6GJQsqaUBKTNV-1" source="eAlN3SAStFsZumbqBgI1-81" target="eAlN3SAStFsZumbqBgI1-86" edge="1">
          <mxGeometry width="50" height="50" relative="1" as="geometry">
            <mxPoint x="903" y="1622" as="sourcePoint" />
            <mxPoint x="953" y="1572" as="targetPoint" />
          </mxGeometry>
        </mxCell>
        <mxCell id="eAlN3SAStFsZumbqBgI1-94" value="" style="endArrow=classic;html=1;exitX=1;exitY=0.5;exitDx=0;exitDy=0;entryX=0;entryY=0.5;entryDx=0;entryDy=0;" parent="WIyWlLk6GJQsqaUBKTNV-1" source="eAlN3SAStFsZumbqBgI1-80" target="eAlN3SAStFsZumbqBgI1-81" edge="1">
          <mxGeometry width="50" height="50" relative="1" as="geometry">
            <mxPoint x="673" y="1690" as="sourcePoint" />
            <mxPoint x="723" y="1640" as="targetPoint" />
          </mxGeometry>
        </mxCell>
        <mxCell id="eAlN3SAStFsZumbqBgI1-95" value="" style="endArrow=classic;html=1;exitX=1;exitY=0.5;exitDx=0;exitDy=0;entryX=0;entryY=0.5;entryDx=0;entryDy=0;" parent="WIyWlLk6GJQsqaUBKTNV-1" source="eAlN3SAStFsZumbqBgI1-79" target="eAlN3SAStFsZumbqBgI1-80" edge="1">
          <mxGeometry width="50" height="50" relative="1" as="geometry">
            <mxPoint x="607" y="1690" as="sourcePoint" />
            <mxPoint x="657" y="1640" as="targetPoint" />
          </mxGeometry>
        </mxCell>
        <mxCell id="eAlN3SAStFsZumbqBgI1-148" value="Yes" style="edgeLabel;html=1;align=center;verticalAlign=middle;resizable=0;points=[];" parent="eAlN3SAStFsZumbqBgI1-95" vertex="1" connectable="0">
          <mxGeometry x="-0.6162" y="2" relative="1" as="geometry">
            <mxPoint y="-15" as="offset" />
          </mxGeometry>
        </mxCell>
        <mxCell id="eAlN3SAStFsZumbqBgI1-96" value="" style="endArrow=classic;html=1;exitX=0.5;exitY=1;exitDx=0;exitDy=0;" parent="WIyWlLk6GJQsqaUBKTNV-1" source="eAlN3SAStFsZumbqBgI1-79" target="eAlN3SAStFsZumbqBgI1-44" edge="1">
          <mxGeometry width="50" height="50" relative="1" as="geometry">
            <mxPoint x="433" y="1608" as="sourcePoint" />
            <mxPoint x="550" y="1691" as="targetPoint" />
          </mxGeometry>
        </mxCell>
        <mxCell id="eAlN3SAStFsZumbqBgI1-181" value="No" style="edgeLabel;html=1;align=center;verticalAlign=middle;resizable=0;points=[];" parent="eAlN3SAStFsZumbqBgI1-96" vertex="1" connectable="0">
          <mxGeometry x="-0.4023" y="1" relative="1" as="geometry">
            <mxPoint x="16" y="-2.06" as="offset" />
          </mxGeometry>
        </mxCell>
        <mxCell id="eAlN3SAStFsZumbqBgI1-97" value="No" style="endArrow=none;html=1;entryX=0;entryY=0.5;entryDx=0;entryDy=0;" parent="WIyWlLk6GJQsqaUBKTNV-1" target="eAlN3SAStFsZumbqBgI1-44" edge="1">
          <mxGeometry x="-0.0698" y="16" width="50" height="50" relative="1" as="geometry">
            <mxPoint x="330" y="1866" as="sourcePoint" />
            <mxPoint x="340" y="1720" as="targetPoint" />
            <mxPoint as="offset" />
          </mxGeometry>
        </mxCell>
        <mxCell id="eAlN3SAStFsZumbqBgI1-98" value="" style="endArrow=none;html=1;" parent="WIyWlLk6GJQsqaUBKTNV-1" edge="1">
          <mxGeometry width="50" height="50" relative="1" as="geometry">
            <mxPoint x="330" y="1870" as="sourcePoint" />
            <mxPoint x="330" y="1220" as="targetPoint" />
          </mxGeometry>
        </mxCell>
        <mxCell id="eAlN3SAStFsZumbqBgI1-99" value="" style="endArrow=none;html=1;entryX=0.5;entryY=1;entryDx=0;entryDy=0;" parent="WIyWlLk6GJQsqaUBKTNV-1" target="eAlN3SAStFsZumbqBgI1-81" edge="1">
          <mxGeometry width="50" height="50" relative="1" as="geometry">
            <mxPoint x="806" y="1620" as="sourcePoint" />
            <mxPoint x="876" y="1680" as="targetPoint" />
          </mxGeometry>
        </mxCell>
        <mxCell id="eAlN3SAStFsZumbqBgI1-100" value="" style="endArrow=none;html=1;" parent="WIyWlLk6GJQsqaUBKTNV-1" edge="1">
          <mxGeometry width="50" height="50" relative="1" as="geometry">
            <mxPoint x="736" y="1620" as="sourcePoint" />
            <mxPoint x="806" y="1620" as="targetPoint" />
          </mxGeometry>
        </mxCell>
        <mxCell id="eAlN3SAStFsZumbqBgI1-102" value="No" style="edgeLabel;html=1;align=center;verticalAlign=middle;resizable=0;points=[];" parent="eAlN3SAStFsZumbqBgI1-100" vertex="1" connectable="0">
          <mxGeometry x="0.3143" y="1" relative="1" as="geometry">
            <mxPoint x="4" y="26" as="offset" />
          </mxGeometry>
        </mxCell>
        <mxCell id="eAlN3SAStFsZumbqBgI1-101" value="" style="endArrow=classic;html=1;" parent="WIyWlLk6GJQsqaUBKTNV-1" edge="1">
          <mxGeometry width="50" height="50" relative="1" as="geometry">
            <mxPoint x="736" y="1620" as="sourcePoint" />
            <mxPoint x="736" y="1530" as="targetPoint" />
          </mxGeometry>
        </mxCell>
        <mxCell id="eAlN3SAStFsZumbqBgI1-105" value="" style="endArrow=classic;html=1;exitX=0;exitY=0.5;exitDx=0;exitDy=0;" parent="WIyWlLk6GJQsqaUBKTNV-1" source="eAlN3SAStFsZumbqBgI1-89" edge="1">
          <mxGeometry width="50" height="50" relative="1" as="geometry">
            <mxPoint x="930" y="1760" as="sourcePoint" />
            <mxPoint x="440" y="1781" as="targetPoint" />
          </mxGeometry>
        </mxCell>
        <mxCell id="eAlN3SAStFsZumbqBgI1-108" value="" style="endArrow=none;html=1;" parent="WIyWlLk6GJQsqaUBKTNV-1" edge="1">
          <mxGeometry width="50" height="50" relative="1" as="geometry">
            <mxPoint x="1216" y="1620" as="sourcePoint" />
            <mxPoint x="1216" y="1445" as="targetPoint" />
          </mxGeometry>
        </mxCell>
        <mxCell id="eAlN3SAStFsZumbqBgI1-109" value="" style="endArrow=none;html=1;" parent="WIyWlLk6GJQsqaUBKTNV-1" edge="1">
          <mxGeometry width="50" height="50" relative="1" as="geometry">
            <mxPoint x="530" y="1445" as="sourcePoint" />
            <mxPoint x="1220" y="1445" as="targetPoint" />
          </mxGeometry>
        </mxCell>
        <mxCell id="eAlN3SAStFsZumbqBgI1-110" value="" style="endArrow=classic;html=1;" parent="WIyWlLk6GJQsqaUBKTNV-1" edge="1">
          <mxGeometry width="50" height="50" relative="1" as="geometry">
            <mxPoint x="530" y="1445" as="sourcePoint" />
            <mxPoint x="530" y="1535" as="targetPoint" />
          </mxGeometry>
        </mxCell>
        <mxCell id="eAlN3SAStFsZumbqBgI1-115" value="" style="endArrow=none;html=1;" parent="WIyWlLk6GJQsqaUBKTNV-1" edge="1">
          <mxGeometry width="50" height="50" relative="1" as="geometry">
            <mxPoint x="260" y="1080" as="sourcePoint" />
            <mxPoint x="260" y="170" as="targetPoint" />
          </mxGeometry>
        </mxCell>
        <mxCell id="eAlN3SAStFsZumbqBgI1-118" value="" style="endArrow=classic;html=1;exitX=0.5;exitY=1;exitDx=0;exitDy=0;" parent="WIyWlLk6GJQsqaUBKTNV-1" source="eAlN3SAStFsZumbqBgI1-4" edge="1">
          <mxGeometry width="50" height="50" relative="1" as="geometry">
            <mxPoint x="400" y="440" as="sourcePoint" />
            <mxPoint x="430" y="530" as="targetPoint" />
          </mxGeometry>
        </mxCell>
        <mxCell id="eAlN3SAStFsZumbqBgI1-147" value="No" style="edgeLabel;html=1;align=center;verticalAlign=middle;resizable=0;points=[];" parent="eAlN3SAStFsZumbqBgI1-118" vertex="1" connectable="0">
          <mxGeometry x="-0.1841" y="-2" relative="1" as="geometry">
            <mxPoint x="-28" y="-2.180000000000007" as="offset" />
          </mxGeometry>
        </mxCell>
        <mxCell id="eAlN3SAStFsZumbqBgI1-120" value="Has enough time passed in order to move?" style="rhombus;whiteSpace=wrap;html=1;shadow=0;fontFamily=Helvetica;fontSize=12;align=center;strokeWidth=1;spacing=6;spacingTop=-4;" parent="WIyWlLk6GJQsqaUBKTNV-1" vertex="1">
          <mxGeometry x="761" y="195" width="166" height="150" as="geometry" />
        </mxCell>
        <mxCell id="eAlN3SAStFsZumbqBgI1-121" value="" style="endArrow=classic;html=1;exitX=1;exitY=0.5;exitDx=0;exitDy=0;" parent="WIyWlLk6GJQsqaUBKTNV-1" source="eAlN3SAStFsZumbqBgI1-5" edge="1">
          <mxGeometry width="50" height="50" relative="1" as="geometry">
            <mxPoint x="790" y="460" as="sourcePoint" />
            <mxPoint x="760" y="270" as="targetPoint" />
          </mxGeometry>
        </mxCell>
        <mxCell id="eAlN3SAStFsZumbqBgI1-123" value="" style="endArrow=classic;html=1;exitX=0.5;exitY=1;exitDx=0;exitDy=0;" parent="WIyWlLk6GJQsqaUBKTNV-1" source="eAlN3SAStFsZumbqBgI1-120" edge="1">
          <mxGeometry width="50" height="50" relative="1" as="geometry">
            <mxPoint x="843.5" y="350" as="sourcePoint" />
            <mxPoint x="844" y="530" as="targetPoint" />
          </mxGeometry>
        </mxCell>
        <mxCell id="eAlN3SAStFsZumbqBgI1-145" value="No" style="edgeLabel;html=1;align=center;verticalAlign=middle;resizable=0;points=[];" parent="eAlN3SAStFsZumbqBgI1-123" vertex="1" connectable="0">
          <mxGeometry x="-0.3692" y="1" relative="1" as="geometry">
            <mxPoint x="-25" y="5.18" as="offset" />
          </mxGeometry>
        </mxCell>
        <mxCell id="eAlN3SAStFsZumbqBgI1-125" value="" style="endArrow=classic;html=1;exitX=0.5;exitY=0;exitDx=0;exitDy=0;" parent="WIyWlLk6GJQsqaUBKTNV-1" source="eAlN3SAStFsZumbqBgI1-15" edge="1">
          <mxGeometry width="50" height="50" relative="1" as="geometry">
            <mxPoint x="1000" y="380" as="sourcePoint" />
            <mxPoint x="1000" y="270" as="targetPoint" />
          </mxGeometry>
        </mxCell>
        <mxCell id="eAlN3SAStFsZumbqBgI1-126" value="No" style="endArrow=classic;html=1;exitX=0.5;exitY=1;exitDx=0;exitDy=0;entryX=0.5;entryY=0;entryDx=0;entryDy=0;" parent="WIyWlLk6GJQsqaUBKTNV-1" source="eAlN3SAStFsZumbqBgI1-12" target="eAlN3SAStFsZumbqBgI1-18" edge="1">
          <mxGeometry x="-0.2927" y="-9" width="50" height="50" relative="1" as="geometry">
            <mxPoint x="1720" y="390" as="sourcePoint" />
            <mxPoint x="1609" y="380" as="targetPoint" />
            <mxPoint as="offset" />
          </mxGeometry>
        </mxCell>
        <mxCell id="eAlN3SAStFsZumbqBgI1-128" value="" style="endArrow=classic;html=1;exitX=1;exitY=0.5;exitDx=0;exitDy=0;" parent="WIyWlLk6GJQsqaUBKTNV-1" source="eAlN3SAStFsZumbqBgI1-24" target="eAlN3SAStFsZumbqBgI1-29" edge="1">
          <mxGeometry width="50" height="50" relative="1" as="geometry">
            <mxPoint x="1340" y="530" as="sourcePoint" />
            <mxPoint x="1390" y="480" as="targetPoint" />
          </mxGeometry>
        </mxCell>
        <mxCell id="eAlN3SAStFsZumbqBgI1-143" value="No" style="edgeLabel;html=1;align=center;verticalAlign=middle;resizable=0;points=[];" parent="eAlN3SAStFsZumbqBgI1-128" vertex="1" connectable="0">
          <mxGeometry x="-0.2625" y="2" relative="1" as="geometry">
            <mxPoint y="-7" as="offset" />
          </mxGeometry>
        </mxCell>
        <mxCell id="eAlN3SAStFsZumbqBgI1-129" value="Negative" style="endArrow=classic;html=1;exitX=0.5;exitY=1;exitDx=0;exitDy=0;" parent="WIyWlLk6GJQsqaUBKTNV-1" source="eAlN3SAStFsZumbqBgI1-7" target="eAlN3SAStFsZumbqBgI1-24" edge="1">
          <mxGeometry x="0.0204" y="-27" width="50" height="50" relative="1" as="geometry">
            <mxPoint x="1240" y="560" as="sourcePoint" />
            <mxPoint x="1290" y="510" as="targetPoint" />
            <mxPoint as="offset" />
          </mxGeometry>
        </mxCell>
        <mxCell id="eAlN3SAStFsZumbqBgI1-130" value="" style="endArrow=classic;html=1;exitX=0;exitY=0.5;exitDx=0;exitDy=0;entryX=1;entryY=0.5;entryDx=0;entryDy=0;" parent="WIyWlLk6GJQsqaUBKTNV-1" source="eAlN3SAStFsZumbqBgI1-24" target="eAlN3SAStFsZumbqBgI1-15" edge="1">
          <mxGeometry width="50" height="50" relative="1" as="geometry">
            <mxPoint x="1170" y="600" as="sourcePoint" />
            <mxPoint x="1220" y="550" as="targetPoint" />
          </mxGeometry>
        </mxCell>
        <mxCell id="eAlN3SAStFsZumbqBgI1-142" value="&#xa;&lt;br&gt;Yes&lt;br&gt;&lt;br&gt;&#xa;&#xa;" style="edgeLabel;html=1;align=center;verticalAlign=middle;resizable=0;points=[];labelBackgroundColor=none;" parent="eAlN3SAStFsZumbqBgI1-130" vertex="1" connectable="0">
          <mxGeometry x="-0.4386" y="1" relative="1" as="geometry">
            <mxPoint x="-17.65" y="-10" as="offset" />
          </mxGeometry>
        </mxCell>
        <mxCell id="eAlN3SAStFsZumbqBgI1-131" value="" style="endArrow=classic;html=1;" parent="WIyWlLk6GJQsqaUBKTNV-1" edge="1">
          <mxGeometry width="50" height="50" relative="1" as="geometry">
            <mxPoint x="930" y="270" as="sourcePoint" />
            <mxPoint x="1000" y="270" as="targetPoint" />
          </mxGeometry>
        </mxCell>
        <mxCell id="eAlN3SAStFsZumbqBgI1-182" value="&#xa;&lt;br&gt;Yes&lt;br&gt;&lt;br&gt;&#xa;&#xa;" style="edgeLabel;html=1;align=center;verticalAlign=middle;resizable=0;points=[];labelBackgroundColor=none;" parent="eAlN3SAStFsZumbqBgI1-131" vertex="1" connectable="0">
          <mxGeometry x="-0.3429" y="2" relative="1" as="geometry">
            <mxPoint y="-8" as="offset" />
          </mxGeometry>
        </mxCell>
        <mxCell id="eAlN3SAStFsZumbqBgI1-133" value="" style="endArrow=classic;html=1;entryX=0;entryY=0.5;entryDx=0;entryDy=0;" parent="WIyWlLk6GJQsqaUBKTNV-1" target="eAlN3SAStFsZumbqBgI1-7" edge="1">
          <mxGeometry width="50" height="50" relative="1" as="geometry">
            <mxPoint x="1000" y="270" as="sourcePoint" />
            <mxPoint x="1130" y="240" as="targetPoint" />
          </mxGeometry>
        </mxCell>
        <mxCell id="eAlN3SAStFsZumbqBgI1-134" value="&#xa;&lt;br&gt;Yes&lt;br&gt;&lt;br&gt;&#xa;&#xa;" style="endArrow=classic;html=1;exitX=1;exitY=0.5;exitDx=0;exitDy=0;entryX=0;entryY=0.5;entryDx=0;entryDy=0;labelBackgroundColor=none;" parent="WIyWlLk6GJQsqaUBKTNV-1" source="eAlN3SAStFsZumbqBgI1-12" target="eAlN3SAStFsZumbqBgI1-27" edge="1">
          <mxGeometry x="-0.0493" y="10" width="50" height="50" relative="1" as="geometry">
            <mxPoint x="1720" y="390" as="sourcePoint" />
            <mxPoint x="1770" y="340" as="targetPoint" />
            <mxPoint as="offset" />
          </mxGeometry>
        </mxCell>
        <mxCell id="eAlN3SAStFsZumbqBgI1-135" value="" style="endArrow=classic;html=1;exitX=0.5;exitY=1;exitDx=0;exitDy=0;" parent="WIyWlLk6GJQsqaUBKTNV-1" source="eAlN3SAStFsZumbqBgI1-18" edge="1">
          <mxGeometry width="50" height="50" relative="1" as="geometry">
            <mxPoint x="1630" y="610" as="sourcePoint" />
            <mxPoint x="1610" y="530" as="targetPoint" />
          </mxGeometry>
        </mxCell>
        <mxCell id="eAlN3SAStFsZumbqBgI1-136" value="" style="endArrow=classic;html=1;" parent="WIyWlLk6GJQsqaUBKTNV-1" edge="1">
          <mxGeometry width="50" height="50" relative="1" as="geometry">
            <mxPoint x="1430" y="470" as="sourcePoint" />
            <mxPoint x="1430" y="530" as="targetPoint" />
          </mxGeometry>
        </mxCell>
        <mxCell id="eAlN3SAStFsZumbqBgI1-137" value="" style="endArrow=classic;html=1;" parent="WIyWlLk6GJQsqaUBKTNV-1" edge="1">
          <mxGeometry width="50" height="50" relative="1" as="geometry">
            <mxPoint x="1610" y="533" as="sourcePoint" />
            <mxPoint x="430" y="533" as="targetPoint" />
          </mxGeometry>
        </mxCell>
        <mxCell id="eAlN3SAStFsZumbqBgI1-138" value="" style="endArrow=none;html=1;exitX=0.5;exitY=0;exitDx=0;exitDy=0;" parent="WIyWlLk6GJQsqaUBKTNV-1" source="eAlN3SAStFsZumbqBgI1-27" edge="1">
          <mxGeometry width="50" height="50" relative="1" as="geometry">
            <mxPoint x="1800" y="190" as="sourcePoint" />
            <mxPoint x="1817" y="170" as="targetPoint" />
          </mxGeometry>
        </mxCell>
        <mxCell id="eAlN3SAStFsZumbqBgI1-140" value="" style="endArrow=none;html=1;" parent="WIyWlLk6GJQsqaUBKTNV-1" edge="1">
          <mxGeometry width="50" height="50" relative="1" as="geometry">
            <mxPoint x="1000" y="170" as="sourcePoint" />
            <mxPoint x="1820" y="170" as="targetPoint" />
          </mxGeometry>
        </mxCell>
        <mxCell id="eAlN3SAStFsZumbqBgI1-141" value="" style="endArrow=classic;html=1;" parent="WIyWlLk6GJQsqaUBKTNV-1" edge="1">
          <mxGeometry width="50" height="50" relative="1" as="geometry">
            <mxPoint x="1000" y="170" as="sourcePoint" />
            <mxPoint x="1000" y="270" as="targetPoint" />
          </mxGeometry>
        </mxCell>
        <mxCell id="eAlN3SAStFsZumbqBgI1-146" value="" style="endArrow=classic;html=1;entryX=0.5;entryY=0;entryDx=0;entryDy=0;" parent="WIyWlLk6GJQsqaUBKTNV-1" target="eAlN3SAStFsZumbqBgI1-49" edge="1">
          <mxGeometry width="50" height="50" relative="1" as="geometry">
            <mxPoint x="430" y="530" as="sourcePoint" />
            <mxPoint x="470" y="590" as="targetPoint" />
          </mxGeometry>
        </mxCell>
        <mxCell id="eAlN3SAStFsZumbqBgI1-150" value="We respond with the message of the options" style="rounded=1;whiteSpace=wrap;html=1;fontSize=12;glass=0;strokeWidth=1;shadow=0;" parent="WIyWlLk6GJQsqaUBKTNV-1" vertex="1">
          <mxGeometry x="573" y="677" width="134" height="60" as="geometry" />
        </mxCell>
        <mxCell id="eAlN3SAStFsZumbqBgI1-151" value="Does it send us something?" style="rhombus;whiteSpace=wrap;html=1;" parent="WIyWlLk6GJQsqaUBKTNV-1" vertex="1">
          <mxGeometry x="751" y="648.75" width="110" height="116.5" as="geometry" />
        </mxCell>
        <mxCell id="eAlN3SAStFsZumbqBgI1-152" value="&#xa;Yes&#xa;&#xa;" style="edgeLabel;html=1;align=center;verticalAlign=middle;resizable=0;points=[];labelBackgroundColor=none;" parent="WIyWlLk6GJQsqaUBKTNV-1" vertex="1" connectable="0">
          <mxGeometry x="887" y="697" as="geometry" />
        </mxCell>
        <mxCell id="eAlN3SAStFsZumbqBgI1-153" value="We analyze the message" style="rounded=1;whiteSpace=wrap;html=1;fontSize=12;glass=0;strokeWidth=1;shadow=0;" parent="WIyWlLk6GJQsqaUBKTNV-1" vertex="1">
          <mxGeometry x="953" y="677" width="134" height="60" as="geometry" />
        </mxCell>
        <mxCell id="eAlN3SAStFsZumbqBgI1-154" value="Is the message correct?" style="rhombus;whiteSpace=wrap;html=1;" parent="WIyWlLk6GJQsqaUBKTNV-1" vertex="1">
          <mxGeometry x="970" y="777" width="100" height="100" as="geometry" />
        </mxCell>
        <mxCell id="eAlN3SAStFsZumbqBgI1-155" value="" style="endArrow=classic;html=1;exitX=0.5;exitY=1;exitDx=0;exitDy=0;entryX=0.5;entryY=0;entryDx=0;entryDy=0;" parent="WIyWlLk6GJQsqaUBKTNV-1" source="eAlN3SAStFsZumbqBgI1-153" target="eAlN3SAStFsZumbqBgI1-154" edge="1">
          <mxGeometry width="50" height="50" relative="1" as="geometry">
            <mxPoint x="1123" y="827" as="sourcePoint" />
            <mxPoint x="1173" y="777" as="targetPoint" />
          </mxGeometry>
        </mxCell>
        <mxCell id="eAlN3SAStFsZumbqBgI1-156" value="We configure the new parameters" style="rounded=1;whiteSpace=wrap;html=1;" parent="WIyWlLk6GJQsqaUBKTNV-1" vertex="1">
          <mxGeometry x="960" y="926" width="120" height="60" as="geometry" />
        </mxCell>
        <mxCell id="eAlN3SAStFsZumbqBgI1-157" value="No" style="endArrow=classic;html=1;exitX=0.5;exitY=1;exitDx=0;exitDy=0;entryX=0.5;entryY=0;entryDx=0;entryDy=0;" parent="WIyWlLk6GJQsqaUBKTNV-1" source="eAlN3SAStFsZumbqBgI1-154" target="eAlN3SAStFsZumbqBgI1-156" edge="1">
          <mxGeometry x="-0.0612" y="-10" width="50" height="50" relative="1" as="geometry">
            <mxPoint x="763" y="927" as="sourcePoint" />
            <mxPoint x="813" y="877" as="targetPoint" />
            <mxPoint y="-1" as="offset" />
          </mxGeometry>
        </mxCell>
        <mxCell id="eAlN3SAStFsZumbqBgI1-158" value="" style="endArrow=classic;html=1;exitX=1;exitY=0.5;exitDx=0;exitDy=0;" parent="WIyWlLk6GJQsqaUBKTNV-1" source="eAlN3SAStFsZumbqBgI1-154" edge="1">
          <mxGeometry width="50" height="50" relative="1" as="geometry">
            <mxPoint x="823" y="897" as="sourcePoint" />
            <mxPoint x="1163" y="827" as="targetPoint" />
          </mxGeometry>
        </mxCell>
        <mxCell id="eAlN3SAStFsZumbqBgI1-159" value="&#xa;Yes&#xa;&#xa;" style="edgeLabel;html=1;align=center;verticalAlign=middle;resizable=0;points=[];labelBackgroundColor=none;" parent="eAlN3SAStFsZumbqBgI1-158" vertex="1" connectable="0">
          <mxGeometry x="-0.3523" relative="1" as="geometry">
            <mxPoint x="10" y="-7" as="offset" />
          </mxGeometry>
        </mxCell>
        <mxCell id="eAlN3SAStFsZumbqBgI1-160" value="Send &quot;Error in message / Wrong format&quot;" style="rounded=1;whiteSpace=wrap;html=1;" parent="WIyWlLk6GJQsqaUBKTNV-1" vertex="1">
          <mxGeometry x="1163" y="797" width="120" height="60" as="geometry" />
        </mxCell>
        <mxCell id="eAlN3SAStFsZumbqBgI1-161" value="" style="endArrow=classic;html=1;exitX=1;exitY=0.5;exitDx=0;exitDy=0;entryX=0;entryY=0.5;entryDx=0;entryDy=0;" parent="WIyWlLk6GJQsqaUBKTNV-1" source="eAlN3SAStFsZumbqBgI1-151" target="eAlN3SAStFsZumbqBgI1-153" edge="1">
          <mxGeometry width="50" height="50" relative="1" as="geometry">
            <mxPoint x="903" y="797" as="sourcePoint" />
            <mxPoint x="953" y="747" as="targetPoint" />
          </mxGeometry>
        </mxCell>
        <mxCell id="eAlN3SAStFsZumbqBgI1-162" value="" style="endArrow=classic;html=1;exitX=1;exitY=0.5;exitDx=0;exitDy=0;entryX=0;entryY=0.5;entryDx=0;entryDy=0;" parent="WIyWlLk6GJQsqaUBKTNV-1" source="eAlN3SAStFsZumbqBgI1-150" target="eAlN3SAStFsZumbqBgI1-151" edge="1">
          <mxGeometry width="50" height="50" relative="1" as="geometry">
            <mxPoint x="673" y="865" as="sourcePoint" />
            <mxPoint x="723" y="815" as="targetPoint" />
          </mxGeometry>
        </mxCell>
        <mxCell id="eAlN3SAStFsZumbqBgI1-163" value="" style="endArrow=classic;html=1;exitX=1;exitY=0.5;exitDx=0;exitDy=0;entryX=0;entryY=0.5;entryDx=0;entryDy=0;" parent="WIyWlLk6GJQsqaUBKTNV-1" target="eAlN3SAStFsZumbqBgI1-150" edge="1">
          <mxGeometry width="50" height="50" relative="1" as="geometry">
            <mxPoint x="493" y="707" as="sourcePoint" />
            <mxPoint x="657" y="815" as="targetPoint" />
          </mxGeometry>
        </mxCell>
        <mxCell id="eAlN3SAStFsZumbqBgI1-164" value="Yes" style="edgeLabel;html=1;align=center;verticalAlign=middle;resizable=0;points=[];" parent="eAlN3SAStFsZumbqBgI1-163" vertex="1" connectable="0">
          <mxGeometry x="-0.6162" y="2" relative="1" as="geometry">
            <mxPoint y="-15" as="offset" />
          </mxGeometry>
        </mxCell>
        <mxCell id="eAlN3SAStFsZumbqBgI1-165" value="" style="endArrow=none;html=1;entryX=0.5;entryY=1;entryDx=0;entryDy=0;" parent="WIyWlLk6GJQsqaUBKTNV-1" target="eAlN3SAStFsZumbqBgI1-151" edge="1">
          <mxGeometry width="50" height="50" relative="1" as="geometry">
            <mxPoint x="806" y="795" as="sourcePoint" />
            <mxPoint x="876" y="855" as="targetPoint" />
          </mxGeometry>
        </mxCell>
        <mxCell id="eAlN3SAStFsZumbqBgI1-166" value="" style="endArrow=none;html=1;" parent="WIyWlLk6GJQsqaUBKTNV-1" edge="1">
          <mxGeometry width="50" height="50" relative="1" as="geometry">
            <mxPoint x="736" y="795" as="sourcePoint" />
            <mxPoint x="806" y="795" as="targetPoint" />
          </mxGeometry>
        </mxCell>
        <mxCell id="eAlN3SAStFsZumbqBgI1-167" value="No" style="edgeLabel;html=1;align=center;verticalAlign=middle;resizable=0;points=[];" parent="eAlN3SAStFsZumbqBgI1-166" vertex="1" connectable="0">
          <mxGeometry x="0.3143" y="1" relative="1" as="geometry">
            <mxPoint x="4" y="26" as="offset" />
          </mxGeometry>
        </mxCell>
        <mxCell id="eAlN3SAStFsZumbqBgI1-168" value="" style="endArrow=classic;html=1;" parent="WIyWlLk6GJQsqaUBKTNV-1" edge="1">
          <mxGeometry width="50" height="50" relative="1" as="geometry">
            <mxPoint x="736" y="795" as="sourcePoint" />
            <mxPoint x="736" y="705" as="targetPoint" />
          </mxGeometry>
        </mxCell>
        <mxCell id="eAlN3SAStFsZumbqBgI1-169" value="" style="endArrow=none;html=1;" parent="WIyWlLk6GJQsqaUBKTNV-1" edge="1">
          <mxGeometry width="50" height="50" relative="1" as="geometry">
            <mxPoint x="1216" y="795" as="sourcePoint" />
            <mxPoint x="1216" y="620" as="targetPoint" />
          </mxGeometry>
        </mxCell>
        <mxCell id="eAlN3SAStFsZumbqBgI1-170" value="" style="endArrow=none;html=1;" parent="WIyWlLk6GJQsqaUBKTNV-1" edge="1">
          <mxGeometry width="50" height="50" relative="1" as="geometry">
            <mxPoint x="530" y="620" as="sourcePoint" />
            <mxPoint x="1220" y="620" as="targetPoint" />
          </mxGeometry>
        </mxCell>
        <mxCell id="eAlN3SAStFsZumbqBgI1-171" value="" style="endArrow=classic;html=1;" parent="WIyWlLk6GJQsqaUBKTNV-1" edge="1">
          <mxGeometry width="50" height="50" relative="1" as="geometry">
            <mxPoint x="530" y="620" as="sourcePoint" />
            <mxPoint x="530" y="710" as="targetPoint" />
          </mxGeometry>
        </mxCell>
        <mxCell id="eAlN3SAStFsZumbqBgI1-172" value="" style="endArrow=classic;html=1;" parent="WIyWlLk6GJQsqaUBKTNV-1" edge="1">
          <mxGeometry width="50" height="50" relative="1" as="geometry">
            <mxPoint x="960" y="955" as="sourcePoint" />
            <mxPoint x="434" y="955.41" as="targetPoint" />
          </mxGeometry>
        </mxCell>
        <mxCell id="eAlN3SAStFsZumbqBgI1-173" value="" style="endArrow=classic;html=1;exitX=0;exitY=0.5;exitDx=0;exitDy=0;" parent="WIyWlLk6GJQsqaUBKTNV-1" source="eAlN3SAStFsZumbqBgI1-35" edge="1">
          <mxGeometry width="50" height="50" relative="1" as="geometry">
            <mxPoint x="240" y="1100" as="sourcePoint" />
            <mxPoint x="260" y="1085" as="targetPoint" />
          </mxGeometry>
        </mxCell>
        <mxCell id="eAlN3SAStFsZumbqBgI1-183" value="No" style="edgeLabel;html=1;align=center;verticalAlign=middle;resizable=0;points=[];" parent="eAlN3SAStFsZumbqBgI1-173" vertex="1" connectable="0">
          <mxGeometry x="-0.2364" y="-2" relative="1" as="geometry">
            <mxPoint y="-13" as="offset" />
          </mxGeometry>
        </mxCell>
        <mxCell id="eAlN3SAStFsZumbqBgI1-175" value="" style="endArrow=classic;html=1;" parent="WIyWlLk6GJQsqaUBKTNV-1" edge="1">
          <mxGeometry width="50" height="50" relative="1" as="geometry">
            <mxPoint x="260" y="1960" as="sourcePoint" />
            <mxPoint x="260" y="1080" as="targetPoint" />
          </mxGeometry>
        </mxCell>
        <mxCell id="eAlN3SAStFsZumbqBgI1-177" value="Yes" style="endArrow=none;html=1;entryX=0.5;entryY=1;entryDx=0;entryDy=0;" parent="WIyWlLk6GJQsqaUBKTNV-1" target="eAlN3SAStFsZumbqBgI1-44" edge="1">
          <mxGeometry x="0.0256" y="-17" width="50" height="50" relative="1" as="geometry">
            <mxPoint x="433" y="1960" as="sourcePoint" />
            <mxPoint x="460" y="1930" as="targetPoint" />
            <Array as="points">
              <mxPoint x="433" y="1940" />
            </Array>
            <mxPoint as="offset" />
          </mxGeometry>
        </mxCell>
        <mxCell id="eAlN3SAStFsZumbqBgI1-179" value="" style="endArrow=none;html=1;" parent="WIyWlLk6GJQsqaUBKTNV-1" edge="1">
          <mxGeometry width="50" height="50" relative="1" as="geometry">
            <mxPoint x="260" y="1960" as="sourcePoint" />
            <mxPoint x="430" y="1960" as="targetPoint" />
          </mxGeometry>
        </mxCell>
        <mxCell id="eAlN3SAStFsZumbqBgI1-180" value="" style="endArrow=classic;html=1;" parent="WIyWlLk6GJQsqaUBKTNV-1" target="eAlN3SAStFsZumbqBgI1-35" edge="1">
          <mxGeometry width="50" height="50" relative="1" as="geometry">
            <mxPoint x="430" y="960" as="sourcePoint" />
            <mxPoint x="820" y="1100" as="targetPoint" />
          </mxGeometry>
        </mxCell>
      </root>
    </mxGraphModel>
  </diagram>
</mxfile>
